HIERARCHY
ROOT Hips
{
 OFFSET 0.000000 0.000000 0.000000
 CHANNELS 6 Xposition Yposition Zposition Yrotation Xrotation Zrotation
 JOINT Chest
 {
  OFFSET 0.000000 9.585900 0.002600
  CHANNELS 3 Yrotation Xrotation Zrotation
  JOINT Chest2
  {
   OFFSET 0.000000 9.601200 -0.005300
   CHANNELS 3 Yrotation Xrotation Zrotation
   JOINT Chest3
   {
    OFFSET 0.000000 9.561800 0.000000
    CHANNELS 3 Yrotation Xrotation Zrotation
    JOINT Chest4
    {
     OFFSET 0.000000 9.552100 0.000000
     CHANNELS 3 Yrotation Xrotation Zrotation
     JOINT Neck
     {
      OFFSET 0.000000 14.453000 0.000000
      CHANNELS 3 Yrotation Xrotation Zrotation
      JOINT Head
      {
       OFFSET 0.000000 8.936500 -0.011300
       CHANNELS 3 Yrotation Xrotation Zrotation
       End Site
       {
        OFFSET 0.000000 17.073600 -0.006000
       }
      }
     }
     JOINT RightCollar
     {
      OFFSET -2.921100 9.558500 0.000000
      CHANNELS 3 Yrotation Xrotation Zrotation
      JOINT RightShoulder
      {
       OFFSET -13.519700 0.000000 0.000000
       CHANNELS 3 Yrotation Xrotation Zrotation
       JOINT RightElbow
       {
        OFFSET 0.000000 -29.696600 0.000000
        CHANNELS 3 Yrotation Xrotation Zrotation
        JOINT RightWrist
        {
         OFFSET 0.000000 -24.004700 0.000000
         CHANNELS 3 Yrotation Xrotation Zrotation
         End Site
         {
          OFFSET 0.000000 -17.728500 0.000000
         }
        }
       }
      }
     }
     JOINT LeftCollar
     {
      OFFSET 2.921100 9.558500 0.000000
      CHANNELS 3 Yrotation Xrotation Zrotation
      JOINT LeftShoulder
      {
       OFFSET 13.519700 0.000000 0.000000
       CHANNELS 3 Yrotation Xrotation Zrotation
       JOINT LeftElbow
       {
        OFFSET 0.000000 -29.696600 0.000000
        CHANNELS 3 Yrotation Xrotation Zrotation
        JOINT LeftWrist
        {
         OFFSET 0.000000 -24.004700 0.000000
         CHANNELS 3 Yrotation Xrotation Zrotation
         End Site
         {
          OFFSET 0.000000 -17.728500 0.000000
         }
        }
       }
      }
     }
    }
   }
  }
 }
 JOINT RightHip
 {
  OFFSET -7.771700 -0.012900 -0.001300
  CHANNELS 3 Yrotation Xrotation Zrotation
  JOINT RightKnee
  {
   OFFSET 0.000000 -40.869800 0.001200
   CHANNELS 3 Yrotation Xrotation Zrotation
   JOINT RightAnkle
   {
    OFFSET 0.000000 -39.717900 0.002100
    CHANNELS 3 Yrotation Xrotation Zrotation
    JOINT RightToe
    {
     OFFSET 0.000000 -4.965400 11.033500
     CHANNELS 3 Yrotation Xrotation Zrotation
     End Site
     {
      OFFSET 0.000000 -1.423100 5.872300
     }
    }
   }
  }
 }
 JOINT LeftHip
 {
  OFFSET 7.771700 -0.012900 -0.001300
  CHANNELS 3 Yrotation Xrotation Zrotation
  JOINT LeftKnee
  {
   OFFSET 0.000000 -40.869800 0.001200
   CHANNELS 3 Yrotation Xrotation Zrotation
   JOINT LeftAnkle
   {
    OFFSET 0.000000 -39.717900 0.002100
    CHANNELS 3 Yrotation Xrotation Zrotation
    JOINT LeftToe
    {
     OFFSET 0.000000 -4.965400 11.033500
     CHANNELS 3 Yrotation Xrotation Zrotation
     End Site
     {
      OFFSET 0.000000 -1.423100 5.872300
     }
    }
   }
  }
 }
}
MOTION
Frames: 9
Frame Time: 0.008333
0.000000 85.388000 0.000000 0.000000 -5.767877 0.000000 0.000000 11.653817 0.000000 0.000000 -5.885947 0.000000 0.000000 -0.000000 0.000000 0.000000 -0.000000 0.000000 0.000000 12.528835 0.000000 0.000000 0.711642 0.000000 0.000000 -0.000000 0.000000 0.000000 0.000000 -90.000000 0.000000 -2.309062 0.000000 0.000000 2.309062 0.000000 0.000000 -0.000000 0.000000 0.000000 -0.000000 90.000000 0.000000 -2.309062 0.000000 0.000000 2.309062 0.000000 0.000000 8.520406 0.000000 0.000000 1.905762 0.000000 -0.000000 -4.658285 0.000000 0.000000 -0.000000 0.000000 0.000000 8.520406 0.000000 0.000000 1.905762 0.000000 -0.000000 -4.658285 0.000000 0.000000 -0.000000 0.000000
-14.457566 57.398789 68.996749 -178.665020 -30.456245 -2.301621 2.948793 17.799909 4.725856 0.249292 2.047964 0.295552 0.418613 3.389907 0.494607 2.243735 15.720662 2.564671 1.376408 17.229705 -0.007013 2.553521 -3.731461 -0.510495 3.807166 -3.073895 -1.342502 20.018382 -20.901929 -21.750362 125.728429 -74.282751 -82.356411 17.111557 -12.717630 -39.896966 -7.373204 -3.529584 -3.422603 -2.049194 -10.894629 -1.274258 28.990762 -29.295646 -65.899116 15.032645 -7.887682 24.324362 10.334136 -40.610051 -5.190689 -2.703598 67.363487 -3.621812 3.567593 5.707911 9.109429 -0.049133 0.175530 -0.020125 -7.619323 -48.763541 3.627449 26.152355 65.450252 25.828877 -18.996820 33.247355 -1.019896 -0.597627 -15.762441 -4.734798
-14.453855 57.398605 68.993836 -178.679382 -30.469460 -2.304868 2.943368 17.782398 4.749005 0.258327 2.060370 0.287107 0.407372 3.366537 0.504792 2.250077 15.734572 2.560225 0.966642 17.500763 -0.038561 1.811671 -3.235098 -0.422704 3.822508 -3.054870 -1.344469 20.025250 -20.894444 -21.761054 125.599185 -74.377561 -82.206365 17.103630 -12.649855 -39.775832 -7.367457 -3.507175 -3.436853 -2.060386 -10.895727 -1.249688 29.067346 -29.005733 -65.958027 15.015110 -7.898046 24.322467 10.316374 -40.601061 -5.158368 -2.697943 67.365503 -3.623873 3.563880 5.704558 9.101815 -0.039644 0.178366 -0.021358 -7.649645 -48.746766 3.635937 26.192954 65.453762 25.888092 -18.991677 33.199812 -1.030119 -0.604352 -15.736220 -4.752090
-14.449947 57.398416 68.990460 -178.699396 -30.487982 -2.305165 2.953326 17.782679 4.766413 0.257745 2.062963 0.287178 0.406263 3.358275 0.504712 2.245528 15.731459 2.561260 0.533605 17.779154 -0.074793 1.021902 -2.715123 -0.341478 3.843793 -3.042054 -1.344309 20.043002 -20.891224 -21.768720 125.372645 -74.487676 -81.967969 17.087889 -12.570783 -39.623162 -7.359179 -3.497275 -3.440232 -2.072498 -10.890685 -1.229866 29.153365 -28.678730 -66.017512 15.002123 -7.917577 24.322704 10.303141 -40.588197 -5.123746 -2.704135 67.368278 -3.638461 3.564335 5.703698 9.097987 -0.039920 0.177949 -0.024052 -7.664290 -48.726460 3.636200 26.243757 65.454271 25.961512 -18.986414 33.162803 -1.050793 -0.604578 -15.714868 -4.759721
-14.451254 57.398127 68.986804 -178.720283 -30.512547 -2.273393 2.955600 17.787290 4.750666 0.254732 2.063551 0.288168 0.411370 3.365943 0.499714 2.228925 15.686898 2.572069 0.076138 18.095224 -0.128526 0.185914 -2.173766 -0.266565 3.869744 -2.997021 -1.353019 20.051583 -20.895290 -21.774792 125.122802 -74.611427 -81.695651 17.067352 -12.483433 -39.455741 -7.340578 -3.466799 -3.453641 -2.086232 -10.879058 -1.222106 29.235708 -28.336045 -66.067634 14.992996 -7.939076 24.330894 10.330745 -40.567420 -5.141336 -2.706384 67.381544 -3.643222 3.563771 5.696103 9.100266 -0.040010 0.178238 -0.028095 -7.633118 -48.700992 3.554587 26.339322 65.436292 26.091578 -18.928229 33.133914 -1.020167 -0.645961 -15.699113 -4.791832
-14.446124 57.397356 68.984572 -178.736164 -30.533091 -2.282742 2.967917 17.784019 4.773978 0.251821 2.062480 0.290195 0.414670 3.376041 0.495298 2.220109 15.664923 2.572044 -0.412045 18.397015 -0.180902 -0.695839 -1.613517 -0.199103 3.881655 -2.971260 -1.352799 20.066666 -20.911711 -21.779249 124.819272 -74.741657 -81.365342 17.041139 -12.394530 -39.287221 -7.327701 -3.440524 -3.457337 -2.103198 -10.882382 -1.213968 29.312039 -27.994239 -66.112273 14.991256 -7.963003 24.346316 10.318476 -40.552741 -5.113427 -2.701387 67.382686 -3.625942 3.568800 5.698024 9.088338 -0.043569 0.176662 -0.029236 -7.631882 -48.675692 3.527655 26.371207 65.426999 26.193965 -18.948595 33.076856 -1.087062 -0.631042 -15.662162 -4.794327
-14.445868 57.395201 68.985056 -178.741022 -30.542554 -2.268960 2.965484 17.782226 4.764137 0.247676 2.049449 0.293708 0.413056 3.372147 0.494300 2.222939 15.684957 2.567645 -0.931422 18.679698 -0.240322 -1.623772 -1.035449 -0.142347 3.881020 -2.968664 -1.349341 20.084735 -20.934481 -21.785669 124.493368 -74.871300 -81.013124 17.011322 -12.312861 -39.124326 -7.322086 -3.434834 -3.454301 -2.111110 -10.883785 -1.214098 29.375466 -27.675330 -66.152425 14.995937 -7.985232 24.364309 10.315993 -40.549044 -5.134975 -2.672011 67.392087 -3.578674 3.575562 5.697336 9.069510 -0.041238 0.175955 -0.030838 -7.610565 -48.667023 3.470515 26.390093 65.412887 26.253088 -18.936455 33.066542 -1.108053 -0.639533 -15.652058 -4.800407
-14.447472 57.394292 68.984409 -178.749044 -30.569707 -2.243568 2.964015 17.797830 4.744190 0.245455 2.035019 0.294841 0.409025 3.337932 0.494471 2.223603 15.710477 2.563345 -1.473136 18.997201 -0.312389 -2.595429 -0.442596 -0.100387 3.883371 -2.934674 -1.343773 20.092351 -20.964075 -21.796275 124.182762 -75.003188 -80.674618 16.985900 -12.244441 -38.970114 -7.311696 -3.395433 -3.456284 -2.174975 -10.921699 -1.171418 29.498947 -27.341703 -66.209548 14.996863 -7.999267 24.385917 10.318524 -40.526370 -5.149184 -2.650537 67.402945 -3.563191 3.574643 5.695398 9.069199 -0.042978 0.174461 -0.034830 -7.575229 -48.642104 3.395759 26.415052 65.398464 26.309409 -18.907629 33.072954 -1.104597 -0.651020 -15.655581 -4.817933
-14.448773 57.393641 68.984702 -178.768126 -30.601636 -2.215100 2.962569 17.777198 4.726704 0.248245 2.045657 0.294143 0.412337 3.358445 0.490069 2.222673 15.667701 2.547534 -2.037255 19.352827 -0.386746 -3.603502 0.157460 -0.076906 3.867920 -2.873871 -1.321962 20.111550 -20.997694 -21.807793 123.888471 -75.128708 -80.354297 16.965294 -12.188188 -38.833029 -7.300825 -3.315381 -3.451003 -2.219091 -10.955246 -1.137463 29.587598 -27.057238 -66.270454 14.988722 -8.015043 24.413813 10.327563 -40.500187 -5.165315 -2.637049 67.411159 -3.545072 3.580234 5.696655 9.058170 -0.043484 0.173577 -0.036735 -7.536675 -48.615263 3.329029 26.470079 65.383935 26.379456 -18.861051 33.094996 -1.050879 -0.680216 -15.666127 -4.859193
